<?xml version="1.0" standalone="no"?>
<svg xmlns="http://www.w3.org/2000/svg" xmlns:xlink="http://www.w3.org/1999/xlink" height="200px" width="300px">
  <defs>
    <pattern id="doodad" width="106" height="106" viewBox="0 0 40 40" patternUnits="userSpaceOnUse" patternTransform="rotate(93)">
      <rect width="100%" height="100%" fill="rgba(255, 250, 205,1)"/>
      <path d="M-20 32.5l20-20l20 20l20-20l20 20l20-20l20 20v-5l-20-20l-20 20l-20-20l-20 20l-20-20l-20 20zM-20-7.5l20-20l20 20l20-20l20 20l20-20l20 20v-5l-20-20l-20 20l-20-20l-20 20l-20-20l-20 20zM-20 72.5l20-20l20 20l20-20l20 20l20-20l20 20v-5l-20-20l-20 20l-20-20l-20 20l-20-20l-20 20z " fill="rgba(11, 93, 69,1)" filter="url(#filter-doodad-1)"/>
      <path d="M-20 30.5l20-20l20 20l20-20l20 20l20-20l20 20v-1l-20-20l-20 20l-20-20l-20 20l-20-20l-20 20zM-20-9.5l20-20l20 20l20-20l20 20l20-20l20 20v-1l-20-20l-20 20l-20-20l-20 20l-20-20l-20 20zM-20 70.5l20-20l20 20l20-20l20 20l20-20l20 20v-1l-20-20l-20 20l-20-20l-20 20l-20-20l-20 20z " fill="rgba(16, 21, 79,1)"/>
    </pattern>
    <filter id="filter-doodad-1">
      <feTurbulence baseFrequency="0" numOctaves="2" type="fractalNoise" result="result1"/>
      <feDisplacementMap in2="result1" scale="0" result="result2" xChannelSelector="R" in="SourceGraphic"/>
      <feComposite in2="result2" in="SourceGraphic" operator="atop" result="fbSourceGraphic"/>
    </filter>
  </defs>
  <rect fill="url(#doodad)" height="200%" width="200%"/>
</svg>
