<?xml version="1.0" standalone="no"?>
<svg xmlns="http://www.w3.org/2000/svg" xmlns:xlink="http://www.w3.org/1999/xlink" height="250px" width="330px">
  <defs>
    <pattern id="doodad" width="56" height="56" viewBox="0 0 40 40" patternUnits="userSpaceOnUse" patternTransform="">
      <rect width="100%" height="100%" fill="rgba(255, 250, 205,1)"/>
      <path d="M0 22.5a 2.5-2.5 0 0 0 2.5-2.5a 17.5-17.5 0 0 1 17.5-17.5a 17.5 17.5 0 0 1 17.5 17.5h-15a-2.5-2.5 0 0 0-2.5-2.5a-2.5 2.5 0 0 0-2.5 2.5a-17.5 17.5 0 0 1-17.5 17.5a-17.5-17.5 0 0 1-17.5-17.5h15a 2.5 2.5 0 0 0 2.5 2.5z" fill="rgba(11, 93, 69,1)" filter="url(#filter-doodad-1)"/>
      <path d="M0 6.5a 13.5 13.5 0 0 1 13.5 13.5a 6.5 6.5 0 0 0 6.5 6.5a 6.5-6.5 0 0 0 6.5-6.5a 13.5-13.5 0 0 1 13.5-13.5a 13.5 13.5 0 0 1 13.5 13.5a 6.5 6.5 0 0 0 6.5 6.5v7a-13.5-13.5 0 0 1-13.5-13.5a-6.5-6.5 0 0 0-6.5-6.5a-6.5 6.5 0 0 0-6.5 6.5a-13.5 13.5 0 0 1-13.5 13.5a-13.5-13.5 0 0 1-13.5-13.5a-6.5-6.5 0 0 0-6.5-6.5a-6.5 6.5 0 0 0-6.5 6.5h-7a 13.5-13.5 0 0 1 13.5-13.5z" fill="rgba(16, 21, 79,1)"/>
      <path d="M20 2.5a 17.5 17.5 0 0 1 17.5 17.5a 2.5 2.5 0 0 0 2.5 2.5v15a-17.5-17.5 0 0 1-17.5-17.5a-2.5-2.5 0 0 0-2.5-2.5zM-20 2.5a 17.5 17.5 0 0 1 17.5 17.5a 2.5 2.5 0 0 0 2.5 2.5v15a-17.5-17.5 0 0 1-17.5-17.5a-2.5-2.5 0 0 0-2.5-2.5z" fill="rgba(11, 93, 69,1)" filter="url(#filter-doodad-1)"/>
    </pattern>
    <filter id="filter-doodad-1">
      <feGaussianBlur in="SourceGraphic" stdDeviation="1"/>
    </filter>
  </defs>
  <rect fill="url(#doodad)" height="200%" width="200%"/>
</svg>
