<svg xmlns="http://www.w3.org/2000/svg" version="1.1" xmlns:xlink="http://www.w3.org/1999/xlink" xmlns:svgjs="http://svgjs.dev/svgjs" viewBox="0 0 800 800" opacity="0.91"><g fill="none" stroke-width="4" stroke="#95961b" stroke-linecap="round" stroke-dasharray="1.5 0" transform="matrix(1.3,0,0,1.3,-120.00000228881834,-120.00000228881834)"><line x1="329" y1="400" x2="471" y2="400" transform="rotate(0, 400, 400)" opacity="0.55"></line><line x1="126" y1="400" x2="674" y2="400" transform="rotate(2, 400, 400)" opacity="0.76"></line><line x1="271" y1="400" x2="529" y2="400" transform="rotate(4, 400, 400)" opacity="0.10"></line><line x1="289" y1="400" x2="511" y2="400" transform="rotate(6, 400, 400)" opacity="0.58"></line><line x1="405" y1="400" x2="395" y2="400" transform="rotate(8, 400, 400)" opacity="0.22"></line><line x1="221.5" y1="400" x2="578.5" y2="400" transform="rotate(10, 400, 400)" opacity="0.68"></line><line x1="466" y1="400" x2="334" y2="400" transform="rotate(12, 400, 400)" opacity="0.94"></line><line x1="312.5" y1="400" x2="487.5" y2="400" transform="rotate(14, 400, 400)" opacity="0.75"></line><line x1="357.5" y1="400" x2="442.5" y2="400" transform="rotate(16, 400, 400)" opacity="0.84"></line><line x1="297.5" y1="400" x2="502.5" y2="400" transform="rotate(18, 400, 400)" opacity="0.46"></line><line x1="52" y1="400" x2="748" y2="400" transform="rotate(20, 400, 400)" opacity="0.56"></line><line x1="289" y1="400" x2="511" y2="400" transform="rotate(22, 400, 400)" opacity="0.83"></line><line x1="294.5" y1="400" x2="505.5" y2="400" transform="rotate(24, 400, 400)" opacity="0.36"></line><line x1="337" y1="400" x2="463" y2="400" transform="rotate(26, 400, 400)" opacity="0.89"></line><line x1="582" y1="400" x2="218" y2="400" transform="rotate(28, 400, 400)" opacity="0.21"></line><line x1="202" y1="400" x2="598" y2="400" transform="rotate(30, 400, 400)" opacity="0.42"></line><line x1="325.5" y1="400" x2="474.5" y2="400" transform="rotate(32, 400, 400)" opacity="0.86"></line><line x1="533" y1="400" x2="267" y2="400" transform="rotate(34, 400, 400)" opacity="0.50"></line><line x1="490.5" y1="400" x2="309.5" y2="400" transform="rotate(36, 400, 400)" opacity="0.93"></line><line x1="312.5" y1="400" x2="487.5" y2="400" transform="rotate(38, 400, 400)" opacity="0.22"></line><line x1="128.5" y1="400" x2="671.5" y2="400" transform="rotate(40, 400, 400)" opacity="0.37"></line><line x1="634" y1="400" x2="166" y2="400" transform="rotate(42, 400, 400)" opacity="0.38"></line><line x1="258" y1="400" x2="542" y2="400" transform="rotate(44, 400, 400)" opacity="0.40"></line><line x1="167" y1="400" x2="633" y2="400" transform="rotate(46, 400, 400)" opacity="0.65"></line><line x1="301" y1="400" x2="499" y2="400" transform="rotate(48, 400, 400)" opacity="0.53"></line><line x1="196.5" y1="400" x2="603.5" y2="400" transform="rotate(50, 400, 400)" opacity="0.30"></line><line x1="274.5" y1="400" x2="525.5" y2="400" transform="rotate(52, 400, 400)" opacity="0.08"></line><line x1="548.5" y1="400" x2="251.5" y2="400" transform="rotate(54, 400, 400)" opacity="0.64"></line><line x1="45.5" y1="400" x2="754.5" y2="400" transform="rotate(56, 400, 400)" opacity="0.40"></line><line x1="225" y1="400" x2="575" y2="400" transform="rotate(58, 400, 400)" opacity="0.62"></line><line x1="248.5" y1="400" x2="551.5" y2="400" transform="rotate(60, 400, 400)" opacity="0.62"></line><line x1="105.5" y1="400" x2="694.5" y2="400" transform="rotate(62, 400, 400)" opacity="0.13"></line><line x1="550" y1="400" x2="250" y2="400" transform="rotate(64, 400, 400)" opacity="0.10"></line><line x1="111" y1="400" x2="689" y2="400" transform="rotate(66, 400, 400)" opacity="0.99"></line><line x1="371" y1="400" x2="429" y2="400" transform="rotate(68, 400, 400)" opacity="0.43"></line><line x1="127" y1="400" x2="673" y2="400" transform="rotate(70, 400, 400)" opacity="0.64"></line><line x1="332" y1="400" x2="468" y2="400" transform="rotate(72, 400, 400)" opacity="0.55"></line><line x1="578" y1="400" x2="222" y2="400" transform="rotate(74, 400, 400)" opacity="0.67"></line><line x1="160.5" y1="400" x2="639.5" y2="400" transform="rotate(76, 400, 400)" opacity="0.96"></line><line x1="214" y1="400" x2="586" y2="400" transform="rotate(78, 400, 400)" opacity="0.17"></line><line x1="246" y1="400" x2="554" y2="400" transform="rotate(80, 400, 400)" opacity="0.33"></line><line x1="509.5" y1="400" x2="290.5" y2="400" transform="rotate(82, 400, 400)" opacity="0.91"></line><line x1="131" y1="400" x2="669" y2="400" transform="rotate(84, 400, 400)" opacity="0.97"></line><line x1="574.5" y1="400" x2="225.5" y2="400" transform="rotate(86, 400, 400)" opacity="0.36"></line><line x1="311" y1="400" x2="489" y2="400" transform="rotate(88, 400, 400)" opacity="0.77"></line><line x1="291" y1="400" x2="509" y2="400" transform="rotate(90, 400, 400)" opacity="0.99"></line><line x1="76.5" y1="400" x2="723.5" y2="400" transform="rotate(92, 400, 400)" opacity="0.14"></line><line x1="319.5" y1="400" x2="480.5" y2="400" transform="rotate(94, 400, 400)" opacity="0.37"></line><line x1="436" y1="400" x2="364" y2="400" transform="rotate(96, 400, 400)" opacity="0.26"></line><line x1="135" y1="400" x2="665" y2="400" transform="rotate(98, 400, 400)" opacity="0.74"></line><line x1="251" y1="400" x2="549" y2="400" transform="rotate(100, 400, 400)" opacity="0.66"></line><line x1="71" y1="400" x2="729" y2="400" transform="rotate(102, 400, 400)" opacity="0.85"></line><line x1="65" y1="400" x2="735" y2="400" transform="rotate(104, 400, 400)" opacity="0.78"></line><line x1="234" y1="400" x2="566" y2="400" transform="rotate(106, 400, 400)" opacity="0.43"></line><line x1="375.5" y1="400" x2="424.5" y2="400" transform="rotate(108, 400, 400)" opacity="0.32"></line><line x1="138" y1="400" x2="662" y2="400" transform="rotate(110, 400, 400)" opacity="0.38"></line><line x1="136.5" y1="400" x2="663.5" y2="400" transform="rotate(112, 400, 400)" opacity="0.80"></line><line x1="27" y1="400" x2="773" y2="400" transform="rotate(114, 400, 400)" opacity="0.34"></line><line x1="431" y1="400" x2="369" y2="400" transform="rotate(116, 400, 400)" opacity="0.80"></line><line x1="23.5" y1="400" x2="776.5" y2="400" transform="rotate(118, 400, 400)" opacity="0.34"></line><line x1="82.5" y1="400" x2="717.5" y2="400" transform="rotate(120, 400, 400)" opacity="0.24"></line><line x1="612" y1="400" x2="188" y2="400" transform="rotate(122, 400, 400)" opacity="0.93"></line><line x1="276" y1="400" x2="524" y2="400" transform="rotate(124, 400, 400)" opacity="0.65"></line><line x1="544" y1="400" x2="256" y2="400" transform="rotate(126, 400, 400)" opacity="0.29"></line><line x1="348.5" y1="400" x2="451.5" y2="400" transform="rotate(128, 400, 400)" opacity="0.20"></line><line x1="634" y1="400" x2="166" y2="400" transform="rotate(130, 400, 400)" opacity="0.33"></line><line x1="39" y1="400" x2="761" y2="400" transform="rotate(132, 400, 400)" opacity="0.12"></line><line x1="466" y1="400" x2="334" y2="400" transform="rotate(134, 400, 400)" opacity="0.25"></line><line x1="210.5" y1="400" x2="589.5" y2="400" transform="rotate(136, 400, 400)" opacity="0.07"></line><line x1="94.5" y1="400" x2="705.5" y2="400" transform="rotate(138, 400, 400)" opacity="1.00"></line><line x1="438" y1="400" x2="362" y2="400" transform="rotate(140, 400, 400)" opacity="0.09"></line><line x1="261.5" y1="400" x2="538.5" y2="400" transform="rotate(142, 400, 400)" opacity="0.92"></line><line x1="420.5" y1="400" x2="379.5" y2="400" transform="rotate(144, 400, 400)" opacity="0.40"></line><line x1="473" y1="400" x2="327" y2="400" transform="rotate(146, 400, 400)" opacity="0.35"></line><line x1="602.5" y1="400" x2="197.5" y2="400" transform="rotate(148, 400, 400)" opacity="0.46"></line><line x1="164.5" y1="400" x2="635.5" y2="400" transform="rotate(150, 400, 400)" opacity="0.55"></line><line x1="247.5" y1="400" x2="552.5" y2="400" transform="rotate(152, 400, 400)" opacity="0.85"></line><line x1="136.5" y1="400" x2="663.5" y2="400" transform="rotate(154, 400, 400)" opacity="0.84"></line><line x1="462" y1="400" x2="338" y2="400" transform="rotate(156, 400, 400)" opacity="0.71"></line><line x1="370" y1="400" x2="430" y2="400" transform="rotate(158, 400, 400)" opacity="0.52"></line><line x1="429.5" y1="400" x2="370.5" y2="400" transform="rotate(160, 400, 400)" opacity="0.58"></line><line x1="155.5" y1="400" x2="644.5" y2="400" transform="rotate(162, 400, 400)" opacity="0.63"></line><line x1="614.5" y1="400" x2="185.5" y2="400" transform="rotate(164, 400, 400)" opacity="0.32"></line><line x1="629" y1="400" x2="171" y2="400" transform="rotate(166, 400, 400)" opacity="0.88"></line><line x1="386" y1="400" x2="414" y2="400" transform="rotate(168, 400, 400)" opacity="0.47"></line><line x1="79" y1="400" x2="721" y2="400" transform="rotate(170, 400, 400)" opacity="0.56"></line><line x1="30.5" y1="400" x2="769.5" y2="400" transform="rotate(172, 400, 400)" opacity="0.24"></line><line x1="513" y1="400" x2="287" y2="400" transform="rotate(174, 400, 400)" opacity="0.96"></line><line x1="47" y1="400" x2="753" y2="400" transform="rotate(176, 400, 400)" opacity="0.67"></line><line x1="296.5" y1="400" x2="503.5" y2="400" transform="rotate(178, 400, 400)" opacity="0.59"></line><line x1="472" y1="400" x2="328" y2="400" transform="rotate(180, 400, 400)" opacity="0.35"></line><line x1="259" y1="400" x2="541" y2="400" transform="rotate(182, 400, 400)" opacity="0.57"></line><line x1="556" y1="400" x2="244" y2="400" transform="rotate(184, 400, 400)" opacity="0.31"></line><line x1="39" y1="400" x2="761" y2="400" transform="rotate(186, 400, 400)" opacity="0.84"></line><line x1="549.5" y1="400" x2="250.5" y2="400" transform="rotate(188, 400, 400)" opacity="0.82"></line><line x1="197" y1="400" x2="603" y2="400" transform="rotate(190, 400, 400)" opacity="0.81"></line><line x1="462" y1="400" x2="338" y2="400" transform="rotate(192, 400, 400)" opacity="0.76"></line><line x1="212" y1="400" x2="588" y2="400" transform="rotate(194, 400, 400)" opacity="0.15"></line><line x1="270" y1="400" x2="530" y2="400" transform="rotate(196, 400, 400)" opacity="0.45"></line><line x1="218.5" y1="400" x2="581.5" y2="400" transform="rotate(198, 400, 400)" opacity="0.59"></line><line x1="464" y1="400" x2="336" y2="400" transform="rotate(200, 400, 400)" opacity="0.44"></line><line x1="19" y1="400" x2="781" y2="400" transform="rotate(202, 400, 400)" opacity="0.68"></line><line x1="164.5" y1="400" x2="635.5" y2="400" transform="rotate(204, 400, 400)" opacity="0.77"></line><line x1="596.5" y1="400" x2="203.5" y2="400" transform="rotate(206, 400, 400)" opacity="0.07"></line><line x1="476.5" y1="400" x2="323.5" y2="400" transform="rotate(208, 400, 400)" opacity="0.25"></line><line x1="617" y1="400" x2="183" y2="400" transform="rotate(210, 400, 400)" opacity="0.37"></line><line x1="379.5" y1="400" x2="420.5" y2="400" transform="rotate(212, 400, 400)" opacity="0.38"></line><line x1="165.5" y1="400" x2="634.5" y2="400" transform="rotate(214, 400, 400)" opacity="0.88"></line><line x1="582.5" y1="400" x2="217.5" y2="400" transform="rotate(216, 400, 400)" opacity="0.19"></line><line x1="230" y1="400" x2="570" y2="400" transform="rotate(218, 400, 400)" opacity="0.89"></line><line x1="630.5" y1="400" x2="169.5" y2="400" transform="rotate(220, 400, 400)" opacity="0.76"></line><line x1="222.5" y1="400" x2="577.5" y2="400" transform="rotate(222, 400, 400)" opacity="0.92"></line><line x1="612" y1="400" x2="188" y2="400" transform="rotate(224, 400, 400)" opacity="0.42"></line><line x1="634.5" y1="400" x2="165.5" y2="400" transform="rotate(226, 400, 400)" opacity="0.25"></line><line x1="121" y1="400" x2="679" y2="400" transform="rotate(228, 400, 400)" opacity="0.62"></line><line x1="47.5" y1="400" x2="752.5" y2="400" transform="rotate(230, 400, 400)" opacity="0.61"></line><line x1="599.5" y1="400" x2="200.5" y2="400" transform="rotate(232, 400, 400)" opacity="0.70"></line><line x1="40" y1="400" x2="760" y2="400" transform="rotate(234, 400, 400)" opacity="0.35"></line><line x1="613" y1="400" x2="187" y2="400" transform="rotate(236, 400, 400)" opacity="0.17"></line><line x1="556" y1="400" x2="244" y2="400" transform="rotate(238, 400, 400)" opacity="0.75"></line><line x1="406.5" y1="400" x2="393.5" y2="400" transform="rotate(240, 400, 400)" opacity="0.56"></line><line x1="498" y1="400" x2="302" y2="400" transform="rotate(242, 400, 400)" opacity="0.95"></line><line x1="341.5" y1="400" x2="458.5" y2="400" transform="rotate(244, 400, 400)" opacity="0.59"></line><line x1="496.5" y1="400" x2="303.5" y2="400" transform="rotate(246, 400, 400)" opacity="0.27"></line><line x1="477" y1="400" x2="323" y2="400" transform="rotate(248, 400, 400)" opacity="0.65"></line><line x1="29.5" y1="400" x2="770.5" y2="400" transform="rotate(250, 400, 400)" opacity="0.58"></line><line x1="410.5" y1="400" x2="389.5" y2="400" transform="rotate(252, 400, 400)" opacity="0.09"></line><line x1="223" y1="400" x2="577" y2="400" transform="rotate(254, 400, 400)" opacity="0.67"></line><line x1="335" y1="400" x2="465" y2="400" transform="rotate(256, 400, 400)" opacity="0.72"></line><line x1="25.5" y1="400" x2="774.5" y2="400" transform="rotate(258, 400, 400)" opacity="0.91"></line><line x1="503.5" y1="400" x2="296.5" y2="400" transform="rotate(260, 400, 400)" opacity="0.27"></line><line x1="365" y1="400" x2="435" y2="400" transform="rotate(262, 400, 400)" opacity="0.89"></line><line x1="233" y1="400" x2="567" y2="400" transform="rotate(264, 400, 400)" opacity="0.68"></line><line x1="233" y1="400" x2="567" y2="400" transform="rotate(266, 400, 400)" opacity="0.83"></line><line x1="601.5" y1="400" x2="198.5" y2="400" transform="rotate(268, 400, 400)" opacity="0.74"></line><line x1="323.5" y1="400" x2="476.5" y2="400" transform="rotate(270, 400, 400)" opacity="0.81"></line><line x1="79" y1="400" x2="721" y2="400" transform="rotate(272, 400, 400)" opacity="0.82"></line><line x1="530.5" y1="400" x2="269.5" y2="400" transform="rotate(274, 400, 400)" opacity="0.44"></line><line x1="467" y1="400" x2="333" y2="400" transform="rotate(276, 400, 400)" opacity="0.45"></line><line x1="362" y1="400" x2="438" y2="400" transform="rotate(278, 400, 400)" opacity="0.85"></line><line x1="610.5" y1="400" x2="189.5" y2="400" transform="rotate(280, 400, 400)" opacity="0.13"></line><line x1="44" y1="400" x2="756" y2="400" transform="rotate(282, 400, 400)" opacity="0.54"></line><line x1="583" y1="400" x2="217" y2="400" transform="rotate(284, 400, 400)" opacity="0.96"></line><line x1="615.5" y1="400" x2="184.5" y2="400" transform="rotate(286, 400, 400)" opacity="0.49"></line><line x1="367" y1="400" x2="433" y2="400" transform="rotate(288, 400, 400)" opacity="0.21"></line><line x1="139.5" y1="400" x2="660.5" y2="400" transform="rotate(290, 400, 400)" opacity="0.25"></line><line x1="193.5" y1="400" x2="606.5" y2="400" transform="rotate(292, 400, 400)" opacity="0.32"></line><line x1="404.5" y1="400" x2="395.5" y2="400" transform="rotate(294, 400, 400)" opacity="0.33"></line><line x1="45.5" y1="400" x2="754.5" y2="400" transform="rotate(296, 400, 400)" opacity="0.23"></line><line x1="42" y1="400" x2="758" y2="400" transform="rotate(298, 400, 400)" opacity="0.85"></line><line x1="39" y1="400" x2="761" y2="400" transform="rotate(300, 400, 400)" opacity="0.97"></line><line x1="191" y1="400" x2="609" y2="400" transform="rotate(302, 400, 400)" opacity="0.27"></line><line x1="94" y1="400" x2="706" y2="400" transform="rotate(304, 400, 400)" opacity="0.92"></line><line x1="555.5" y1="400" x2="244.5" y2="400" transform="rotate(306, 400, 400)" opacity="0.51"></line><line x1="426" y1="400" x2="374" y2="400" transform="rotate(308, 400, 400)" opacity="0.19"></line><line x1="598.5" y1="400" x2="201.5" y2="400" transform="rotate(310, 400, 400)" opacity="0.64"></line><line x1="588.5" y1="400" x2="211.5" y2="400" transform="rotate(312, 400, 400)" opacity="0.73"></line><line x1="537" y1="400" x2="263" y2="400" transform="rotate(314, 400, 400)" opacity="0.40"></line><line x1="326" y1="400" x2="474" y2="400" transform="rotate(316, 400, 400)" opacity="0.54"></line><line x1="310" y1="400" x2="490" y2="400" transform="rotate(318, 400, 400)" opacity="0.81"></line><line x1="549" y1="400" x2="251" y2="400" transform="rotate(320, 400, 400)" opacity="0.21"></line><line x1="574" y1="400" x2="226" y2="400" transform="rotate(322, 400, 400)" opacity="0.13"></line><line x1="151.5" y1="400" x2="648.5" y2="400" transform="rotate(324, 400, 400)" opacity="0.28"></line><line x1="64" y1="400" x2="736" y2="400" transform="rotate(326, 400, 400)" opacity="0.96"></line><line x1="408.5" y1="400" x2="391.5" y2="400" transform="rotate(328, 400, 400)" opacity="0.54"></line><line x1="188" y1="400" x2="612" y2="400" transform="rotate(330, 400, 400)" opacity="0.16"></line><line x1="30" y1="400" x2="770" y2="400" transform="rotate(332, 400, 400)" opacity="0.09"></line><line x1="151" y1="400" x2="649" y2="400" transform="rotate(334, 400, 400)" opacity="0.66"></line><line x1="419.5" y1="400" x2="380.5" y2="400" transform="rotate(336, 400, 400)" opacity="0.64"></line><line x1="303.5" y1="400" x2="496.5" y2="400" transform="rotate(338, 400, 400)" opacity="0.54"></line><line x1="513.5" y1="400" x2="286.5" y2="400" transform="rotate(340, 400, 400)" opacity="0.93"></line><line x1="464.5" y1="400" x2="335.5" y2="400" transform="rotate(342, 400, 400)" opacity="0.87"></line><line x1="422" y1="400" x2="378" y2="400" transform="rotate(344, 400, 400)" opacity="0.13"></line><line x1="164.5" y1="400" x2="635.5" y2="400" transform="rotate(346, 400, 400)" opacity="0.31"></line><line x1="151.5" y1="400" x2="648.5" y2="400" transform="rotate(348, 400, 400)" opacity="0.90"></line><line x1="266" y1="400" x2="534" y2="400" transform="rotate(350, 400, 400)" opacity="0.87"></line><line x1="68" y1="400" x2="732" y2="400" transform="rotate(352, 400, 400)" opacity="0.83"></line><line x1="556" y1="400" x2="244" y2="400" transform="rotate(354, 400, 400)" opacity="0.36"></line><line x1="353" y1="400" x2="447" y2="400" transform="rotate(356, 400, 400)" opacity="0.40"></line><line x1="423.5" y1="400" x2="376.5" y2="400" transform="rotate(358, 400, 400)" opacity="0.65"></line><line x1="608" y1="400" x2="192" y2="400" transform="rotate(360, 400, 400)" opacity="0.27"></line><line x1="477.5" y1="400" x2="322.5" y2="400" transform="rotate(362, 400, 400)" opacity="0.58"></line><line x1="21" y1="400" x2="779" y2="400" transform="rotate(364, 400, 400)" opacity="0.81"></line><line x1="193.5" y1="400" x2="606.5" y2="400" transform="rotate(366, 400, 400)" opacity="0.36"></line><line x1="468.5" y1="400" x2="331.5" y2="400" transform="rotate(368, 400, 400)" opacity="0.10"></line><line x1="93" y1="400" x2="707" y2="400" transform="rotate(370, 400, 400)" opacity="0.60"></line><line x1="416.5" y1="400" x2="383.5" y2="400" transform="rotate(372, 400, 400)" opacity="0.51"></line><line x1="66.5" y1="400" x2="733.5" y2="400" transform="rotate(374, 400, 400)" opacity="0.36"></line><line x1="451" y1="400" x2="349" y2="400" transform="rotate(376, 400, 400)" opacity="0.18"></line><line x1="430" y1="400" x2="370" y2="400" transform="rotate(378, 400, 400)" opacity="0.15"></line><line x1="512" y1="400" x2="288" y2="400" transform="rotate(380, 400, 400)" opacity="0.46"></line><line x1="518.5" y1="400" x2="281.5" y2="400" transform="rotate(382, 400, 400)" opacity="0.36"></line></g></svg>