<svg xmlns="http://www.w3.org/2000/svg" version="1.1" xmlns:xlink="http://www.w3.org/1999/xlink" xmlns:svgjs="http://svgjs.dev/svgjs" viewBox="0 0 800 800" opacity="0.91"><g fill="none" stroke-width="4" stroke="#0b5d45" stroke-linecap="round" stroke-dasharray="1.5 0" transform="matrix(1.3,0,0,1.3,-119.99999713897705,-120.00000228881834)"><line x1="162" y1="400" x2="638" y2="400" transform="rotate(0, 400, 400)" opacity="0.34"></line><line x1="463" y1="400" x2="337" y2="400" transform="rotate(2, 400, 400)" opacity="0.38"></line><line x1="118.5" y1="400" x2="681.5" y2="400" transform="rotate(4, 400, 400)" opacity="0.27"></line><line x1="74.5" y1="400" x2="725.5" y2="400" transform="rotate(6, 400, 400)" opacity="0.78"></line><line x1="298.5" y1="400" x2="501.5" y2="400" transform="rotate(8, 400, 400)" opacity="0.16"></line><line x1="629.5" y1="400" x2="170.5" y2="400" transform="rotate(10, 400, 400)" opacity="0.22"></line><line x1="79.5" y1="400" x2="720.5" y2="400" transform="rotate(12, 400, 400)" opacity="0.32"></line><line x1="309.5" y1="400" x2="490.5" y2="400" transform="rotate(14, 400, 400)" opacity="0.27"></line><line x1="619" y1="400" x2="181" y2="400" transform="rotate(16, 400, 400)" opacity="0.63"></line><line x1="78" y1="400" x2="722" y2="400" transform="rotate(18, 400, 400)" opacity="0.70"></line><line x1="74" y1="400" x2="726" y2="400" transform="rotate(20, 400, 400)" opacity="0.34"></line><line x1="409.5" y1="400" x2="390.5" y2="400" transform="rotate(22, 400, 400)" opacity="0.07"></line><line x1="569.5" y1="400" x2="230.5" y2="400" transform="rotate(24, 400, 400)" opacity="0.96"></line><line x1="587" y1="400" x2="213" y2="400" transform="rotate(26, 400, 400)" opacity="0.78"></line><line x1="282.5" y1="400" x2="517.5" y2="400" transform="rotate(28, 400, 400)" opacity="0.63"></line><line x1="503" y1="400" x2="297" y2="400" transform="rotate(30, 400, 400)" opacity="0.75"></line><line x1="630" y1="400" x2="170" y2="400" transform="rotate(32, 400, 400)" opacity="0.19"></line><line x1="535" y1="400" x2="265" y2="400" transform="rotate(34, 400, 400)" opacity="0.54"></line><line x1="486.5" y1="400" x2="313.5" y2="400" transform="rotate(36, 400, 400)" opacity="0.55"></line><line x1="236.5" y1="400" x2="563.5" y2="400" transform="rotate(38, 400, 400)" opacity="0.73"></line><line x1="376" y1="400" x2="424" y2="400" transform="rotate(40, 400, 400)" opacity="0.57"></line><line x1="476" y1="400" x2="324" y2="400" transform="rotate(42, 400, 400)" opacity="0.13"></line><line x1="380" y1="400" x2="420" y2="400" transform="rotate(44, 400, 400)" opacity="0.89"></line><line x1="430" y1="400" x2="370" y2="400" transform="rotate(46, 400, 400)" opacity="0.87"></line><line x1="171.5" y1="400" x2="628.5" y2="400" transform="rotate(48, 400, 400)" opacity="0.72"></line><line x1="611.5" y1="400" x2="188.5" y2="400" transform="rotate(50, 400, 400)" opacity="0.13"></line><line x1="138" y1="400" x2="662" y2="400" transform="rotate(52, 400, 400)" opacity="0.25"></line><line x1="320" y1="400" x2="480" y2="400" transform="rotate(54, 400, 400)" opacity="0.37"></line><line x1="245" y1="400" x2="555" y2="400" transform="rotate(56, 400, 400)" opacity="0.60"></line><line x1="206" y1="400" x2="594" y2="400" transform="rotate(58, 400, 400)" opacity="0.15"></line><line x1="205.5" y1="400" x2="594.5" y2="400" transform="rotate(60, 400, 400)" opacity="0.75"></line><line x1="104.5" y1="400" x2="695.5" y2="400" transform="rotate(62, 400, 400)" opacity="0.38"></line><line x1="41" y1="400" x2="759" y2="400" transform="rotate(64, 400, 400)" opacity="0.23"></line><line x1="127" y1="400" x2="673" y2="400" transform="rotate(66, 400, 400)" opacity="0.74"></line><line x1="285.5" y1="400" x2="514.5" y2="400" transform="rotate(68, 400, 400)" opacity="0.83"></line><line x1="615.5" y1="400" x2="184.5" y2="400" transform="rotate(70, 400, 400)" opacity="0.63"></line><line x1="259.5" y1="400" x2="540.5" y2="400" transform="rotate(72, 400, 400)" opacity="0.07"></line><line x1="277" y1="400" x2="523" y2="400" transform="rotate(74, 400, 400)" opacity="0.56"></line><line x1="106.5" y1="400" x2="693.5" y2="400" transform="rotate(76, 400, 400)" opacity="0.63"></line><line x1="434" y1="400" x2="366" y2="400" transform="rotate(78, 400, 400)" opacity="0.54"></line><line x1="450.5" y1="400" x2="349.5" y2="400" transform="rotate(80, 400, 400)" opacity="0.13"></line><line x1="191" y1="400" x2="609" y2="400" transform="rotate(82, 400, 400)" opacity="0.47"></line><line x1="108.5" y1="400" x2="691.5" y2="400" transform="rotate(84, 400, 400)" opacity="0.32"></line><line x1="213.5" y1="400" x2="586.5" y2="400" transform="rotate(86, 400, 400)" opacity="0.66"></line><line x1="563.5" y1="400" x2="236.5" y2="400" transform="rotate(88, 400, 400)" opacity="0.91"></line><line x1="85" y1="400" x2="715" y2="400" transform="rotate(90, 400, 400)" opacity="0.47"></line><line x1="217.5" y1="400" x2="582.5" y2="400" transform="rotate(92, 400, 400)" opacity="0.11"></line><line x1="382" y1="400" x2="418" y2="400" transform="rotate(94, 400, 400)" opacity="0.63"></line><line x1="302" y1="400" x2="498" y2="400" transform="rotate(96, 400, 400)" opacity="0.48"></line><line x1="430" y1="400" x2="370" y2="400" transform="rotate(98, 400, 400)" opacity="0.40"></line><line x1="378" y1="400" x2="422" y2="400" transform="rotate(100, 400, 400)" opacity="0.09"></line><line x1="370.5" y1="400" x2="429.5" y2="400" transform="rotate(102, 400, 400)" opacity="0.30"></line><line x1="229" y1="400" x2="571" y2="400" transform="rotate(104, 400, 400)" opacity="0.66"></line><line x1="544" y1="400" x2="256" y2="400" transform="rotate(106, 400, 400)" opacity="0.31"></line><line x1="309" y1="400" x2="491" y2="400" transform="rotate(108, 400, 400)" opacity="0.07"></line><line x1="35" y1="400" x2="765" y2="400" transform="rotate(110, 400, 400)" opacity="0.94"></line><line x1="314.5" y1="400" x2="485.5" y2="400" transform="rotate(112, 400, 400)" opacity="0.88"></line><line x1="421" y1="400" x2="379" y2="400" transform="rotate(114, 400, 400)" opacity="0.68"></line><line x1="109.5" y1="400" x2="690.5" y2="400" transform="rotate(116, 400, 400)" opacity="0.85"></line><line x1="453.5" y1="400" x2="346.5" y2="400" transform="rotate(118, 400, 400)" opacity="0.15"></line><line x1="507" y1="400" x2="293" y2="400" transform="rotate(120, 400, 400)" opacity="0.34"></line><line x1="86.5" y1="400" x2="713.5" y2="400" transform="rotate(122, 400, 400)" opacity="0.09"></line><line x1="551" y1="400" x2="249" y2="400" transform="rotate(124, 400, 400)" opacity="0.36"></line><line x1="63" y1="400" x2="737" y2="400" transform="rotate(126, 400, 400)" opacity="0.37"></line><line x1="456" y1="400" x2="344" y2="400" transform="rotate(128, 400, 400)" opacity="0.47"></line><line x1="590.5" y1="400" x2="209.5" y2="400" transform="rotate(130, 400, 400)" opacity="0.93"></line><line x1="543" y1="400" x2="257" y2="400" transform="rotate(132, 400, 400)" opacity="0.55"></line><line x1="431.5" y1="400" x2="368.5" y2="400" transform="rotate(134, 400, 400)" opacity="0.65"></line><line x1="91" y1="400" x2="709" y2="400" transform="rotate(136, 400, 400)" opacity="0.37"></line><line x1="41.5" y1="400" x2="758.5" y2="400" transform="rotate(138, 400, 400)" opacity="0.31"></line><line x1="25.5" y1="400" x2="774.5" y2="400" transform="rotate(140, 400, 400)" opacity="0.46"></line><line x1="407" y1="400" x2="393" y2="400" transform="rotate(142, 400, 400)" opacity="0.94"></line><line x1="622.5" y1="400" x2="177.5" y2="400" transform="rotate(144, 400, 400)" opacity="0.31"></line><line x1="280.5" y1="400" x2="519.5" y2="400" transform="rotate(146, 400, 400)" opacity="0.36"></line><line x1="54" y1="400" x2="746" y2="400" transform="rotate(148, 400, 400)" opacity="0.60"></line><line x1="548.5" y1="400" x2="251.5" y2="400" transform="rotate(150, 400, 400)" opacity="0.69"></line><line x1="35.5" y1="400" x2="764.5" y2="400" transform="rotate(152, 400, 400)" opacity="0.51"></line><line x1="559.5" y1="400" x2="240.5" y2="400" transform="rotate(154, 400, 400)" opacity="0.19"></line><line x1="276.5" y1="400" x2="523.5" y2="400" transform="rotate(156, 400, 400)" opacity="0.17"></line><line x1="330.5" y1="400" x2="469.5" y2="400" transform="rotate(158, 400, 400)" opacity="0.83"></line><line x1="324.5" y1="400" x2="475.5" y2="400" transform="rotate(160, 400, 400)" opacity="0.24"></line><line x1="139.5" y1="400" x2="660.5" y2="400" transform="rotate(162, 400, 400)" opacity="0.85"></line><line x1="72.5" y1="400" x2="727.5" y2="400" transform="rotate(164, 400, 400)" opacity="0.79"></line><line x1="430" y1="400" x2="370" y2="400" transform="rotate(166, 400, 400)" opacity="0.68"></line><line x1="568" y1="400" x2="232" y2="400" transform="rotate(168, 400, 400)" opacity="0.95"></line><line x1="36.5" y1="400" x2="763.5" y2="400" transform="rotate(170, 400, 400)" opacity="0.85"></line><line x1="296.5" y1="400" x2="503.5" y2="400" transform="rotate(172, 400, 400)" opacity="0.56"></line><line x1="136.5" y1="400" x2="663.5" y2="400" transform="rotate(174, 400, 400)" opacity="0.59"></line><line x1="343" y1="400" x2="457" y2="400" transform="rotate(176, 400, 400)" opacity="0.86"></line><line x1="475.5" y1="400" x2="324.5" y2="400" transform="rotate(178, 400, 400)" opacity="0.78"></line><line x1="521.5" y1="400" x2="278.5" y2="400" transform="rotate(180, 400, 400)" opacity="0.89"></line><line x1="394.5" y1="400" x2="405.5" y2="400" transform="rotate(182, 400, 400)" opacity="0.88"></line><line x1="472" y1="400" x2="328" y2="400" transform="rotate(184, 400, 400)" opacity="0.25"></line><line x1="26.5" y1="400" x2="773.5" y2="400" transform="rotate(186, 400, 400)" opacity="0.19"></line><line x1="333" y1="400" x2="467" y2="400" transform="rotate(188, 400, 400)" opacity="0.32"></line><line x1="622" y1="400" x2="178" y2="400" transform="rotate(190, 400, 400)" opacity="0.28"></line><line x1="621.5" y1="400" x2="178.5" y2="400" transform="rotate(192, 400, 400)" opacity="0.46"></line><line x1="65.5" y1="400" x2="734.5" y2="400" transform="rotate(194, 400, 400)" opacity="0.97"></line><line x1="438.5" y1="400" x2="361.5" y2="400" transform="rotate(196, 400, 400)" opacity="0.81"></line><line x1="372.5" y1="400" x2="427.5" y2="400" transform="rotate(198, 400, 400)" opacity="0.67"></line><line x1="520" y1="400" x2="280" y2="400" transform="rotate(200, 400, 400)" opacity="0.62"></line><line x1="124" y1="400" x2="676" y2="400" transform="rotate(202, 400, 400)" opacity="0.61"></line><line x1="515.5" y1="400" x2="284.5" y2="400" transform="rotate(204, 400, 400)" opacity="0.67"></line><line x1="227.5" y1="400" x2="572.5" y2="400" transform="rotate(206, 400, 400)" opacity="0.79"></line><line x1="446" y1="400" x2="354" y2="400" transform="rotate(208, 400, 400)" opacity="0.16"></line><line x1="414" y1="400" x2="386" y2="400" transform="rotate(210, 400, 400)" opacity="0.95"></line><line x1="567.5" y1="400" x2="232.5" y2="400" transform="rotate(212, 400, 400)" opacity="0.42"></line><line x1="104" y1="400" x2="696" y2="400" transform="rotate(214, 400, 400)" opacity="0.26"></line><line x1="168.5" y1="400" x2="631.5" y2="400" transform="rotate(216, 400, 400)" opacity="0.53"></line><line x1="589.5" y1="400" x2="210.5" y2="400" transform="rotate(218, 400, 400)" opacity="0.53"></line><line x1="345" y1="400" x2="455" y2="400" transform="rotate(220, 400, 400)" opacity="0.76"></line><line x1="195" y1="400" x2="605" y2="400" transform="rotate(222, 400, 400)" opacity="0.66"></line><line x1="509" y1="400" x2="291" y2="400" transform="rotate(224, 400, 400)" opacity="0.34"></line><line x1="252" y1="400" x2="548" y2="400" transform="rotate(226, 400, 400)" opacity="1.00"></line><line x1="297" y1="400" x2="503" y2="400" transform="rotate(228, 400, 400)" opacity="0.23"></line><line x1="598" y1="400" x2="202" y2="400" transform="rotate(230, 400, 400)" opacity="0.51"></line><line x1="96.5" y1="400" x2="703.5" y2="400" transform="rotate(232, 400, 400)" opacity="0.79"></line><line x1="189" y1="400" x2="611" y2="400" transform="rotate(234, 400, 400)" opacity="0.17"></line><line x1="221" y1="400" x2="579" y2="400" transform="rotate(236, 400, 400)" opacity="0.42"></line><line x1="496" y1="400" x2="304" y2="400" transform="rotate(238, 400, 400)" opacity="0.60"></line><line x1="595.5" y1="400" x2="204.5" y2="400" transform="rotate(240, 400, 400)" opacity="0.74"></line><line x1="614" y1="400" x2="186" y2="400" transform="rotate(242, 400, 400)" opacity="0.50"></line><line x1="496" y1="400" x2="304" y2="400" transform="rotate(244, 400, 400)" opacity="0.88"></line><line x1="483" y1="400" x2="317" y2="400" transform="rotate(246, 400, 400)" opacity="0.68"></line><line x1="157" y1="400" x2="643" y2="400" transform="rotate(248, 400, 400)" opacity="0.21"></line><line x1="477" y1="400" x2="323" y2="400" transform="rotate(250, 400, 400)" opacity="0.92"></line><line x1="504.5" y1="400" x2="295.5" y2="400" transform="rotate(252, 400, 400)" opacity="0.60"></line><line x1="203" y1="400" x2="597" y2="400" transform="rotate(254, 400, 400)" opacity="0.19"></line><line x1="549.5" y1="400" x2="250.5" y2="400" transform="rotate(256, 400, 400)" opacity="0.11"></line><line x1="524" y1="400" x2="276" y2="400" transform="rotate(258, 400, 400)" opacity="0.44"></line><line x1="486" y1="400" x2="314" y2="400" transform="rotate(260, 400, 400)" opacity="0.31"></line><line x1="42" y1="400" x2="758" y2="400" transform="rotate(262, 400, 400)" opacity="0.48"></line><line x1="50.5" y1="400" x2="749.5" y2="400" transform="rotate(264, 400, 400)" opacity="0.40"></line><line x1="372" y1="400" x2="428" y2="400" transform="rotate(266, 400, 400)" opacity="0.53"></line><line x1="44.5" y1="400" x2="755.5" y2="400" transform="rotate(268, 400, 400)" opacity="0.70"></line><line x1="293.5" y1="400" x2="506.5" y2="400" transform="rotate(270, 400, 400)" opacity="0.16"></line><line x1="128.5" y1="400" x2="671.5" y2="400" transform="rotate(272, 400, 400)" opacity="0.92"></line><line x1="423.5" y1="400" x2="376.5" y2="400" transform="rotate(274, 400, 400)" opacity="0.46"></line><line x1="534.5" y1="400" x2="265.5" y2="400" transform="rotate(276, 400, 400)" opacity="0.14"></line><line x1="227" y1="400" x2="573" y2="400" transform="rotate(278, 400, 400)" opacity="0.64"></line><line x1="368.5" y1="400" x2="431.5" y2="400" transform="rotate(280, 400, 400)" opacity="0.20"></line><line x1="174.5" y1="400" x2="625.5" y2="400" transform="rotate(282, 400, 400)" opacity="0.93"></line><line x1="295" y1="400" x2="505" y2="400" transform="rotate(284, 400, 400)" opacity="0.65"></line><line x1="439" y1="400" x2="361" y2="400" transform="rotate(286, 400, 400)" opacity="0.62"></line><line x1="632" y1="400" x2="168" y2="400" transform="rotate(288, 400, 400)" opacity="0.92"></line><line x1="554" y1="400" x2="246" y2="400" transform="rotate(290, 400, 400)" opacity="0.93"></line><line x1="151" y1="400" x2="649" y2="400" transform="rotate(292, 400, 400)" opacity="0.73"></line><line x1="359.5" y1="400" x2="440.5" y2="400" transform="rotate(294, 400, 400)" opacity="0.99"></line><line x1="534.5" y1="400" x2="265.5" y2="400" transform="rotate(296, 400, 400)" opacity="0.19"></line><line x1="164.5" y1="400" x2="635.5" y2="400" transform="rotate(298, 400, 400)" opacity="0.55"></line><line x1="551" y1="400" x2="249" y2="400" transform="rotate(300, 400, 400)" opacity="0.84"></line><line x1="198.5" y1="400" x2="601.5" y2="400" transform="rotate(302, 400, 400)" opacity="0.16"></line><line x1="29.5" y1="400" x2="770.5" y2="400" transform="rotate(304, 400, 400)" opacity="0.80"></line><line x1="488" y1="400" x2="312" y2="400" transform="rotate(306, 400, 400)" opacity="0.54"></line><line x1="229.5" y1="400" x2="570.5" y2="400" transform="rotate(308, 400, 400)" opacity="0.55"></line><line x1="298.5" y1="400" x2="501.5" y2="400" transform="rotate(310, 400, 400)" opacity="0.28"></line><line x1="329" y1="400" x2="471" y2="400" transform="rotate(312, 400, 400)" opacity="0.08"></line><line x1="101" y1="400" x2="699" y2="400" transform="rotate(314, 400, 400)" opacity="0.82"></line><line x1="547" y1="400" x2="253" y2="400" transform="rotate(316, 400, 400)" opacity="0.83"></line><line x1="535" y1="400" x2="265" y2="400" transform="rotate(318, 400, 400)" opacity="0.18"></line><line x1="534" y1="400" x2="266" y2="400" transform="rotate(320, 400, 400)" opacity="1.00"></line><line x1="377.5" y1="400" x2="422.5" y2="400" transform="rotate(322, 400, 400)" opacity="0.98"></line><line x1="417" y1="400" x2="383" y2="400" transform="rotate(324, 400, 400)" opacity="0.33"></line><line x1="286" y1="400" x2="514" y2="400" transform="rotate(326, 400, 400)" opacity="0.98"></line><line x1="438" y1="400" x2="362" y2="400" transform="rotate(328, 400, 400)" opacity="0.22"></line><line x1="58.5" y1="400" x2="741.5" y2="400" transform="rotate(330, 400, 400)" opacity="0.88"></line><line x1="164" y1="400" x2="636" y2="400" transform="rotate(332, 400, 400)" opacity="0.86"></line><line x1="311.5" y1="400" x2="488.5" y2="400" transform="rotate(334, 400, 400)" opacity="0.32"></line><line x1="71.5" y1="400" x2="728.5" y2="400" transform="rotate(336, 400, 400)" opacity="0.52"></line><line x1="448.5" y1="400" x2="351.5" y2="400" transform="rotate(338, 400, 400)" opacity="0.63"></line><line x1="304.5" y1="400" x2="495.5" y2="400" transform="rotate(340, 400, 400)" opacity="0.83"></line><line x1="606.5" y1="400" x2="193.5" y2="400" transform="rotate(342, 400, 400)" opacity="0.65"></line><line x1="383.5" y1="400" x2="416.5" y2="400" transform="rotate(344, 400, 400)" opacity="0.72"></line><line x1="542" y1="400" x2="258" y2="400" transform="rotate(346, 400, 400)" opacity="0.75"></line><line x1="104.5" y1="400" x2="695.5" y2="400" transform="rotate(348, 400, 400)" opacity="1.00"></line><line x1="580" y1="400" x2="220" y2="400" transform="rotate(350, 400, 400)" opacity="0.79"></line><line x1="211" y1="400" x2="589" y2="400" transform="rotate(352, 400, 400)" opacity="0.42"></line><line x1="368.5" y1="400" x2="431.5" y2="400" transform="rotate(354, 400, 400)" opacity="0.56"></line><line x1="335.5" y1="400" x2="464.5" y2="400" transform="rotate(356, 400, 400)" opacity="0.81"></line><line x1="223.5" y1="400" x2="576.5" y2="400" transform="rotate(358, 400, 400)" opacity="0.86"></line><line x1="205.5" y1="400" x2="594.5" y2="400" transform="rotate(360, 400, 400)" opacity="0.23"></line><line x1="357.5" y1="400" x2="442.5" y2="400" transform="rotate(362, 400, 400)" opacity="0.17"></line><line x1="58.5" y1="400" x2="741.5" y2="400" transform="rotate(364, 400, 400)" opacity="0.22"></line><line x1="619" y1="400" x2="181" y2="400" transform="rotate(366, 400, 400)" opacity="0.68"></line><line x1="626.5" y1="400" x2="173.5" y2="400" transform="rotate(368, 400, 400)" opacity="0.58"></line><line x1="223.5" y1="400" x2="576.5" y2="400" transform="rotate(370, 400, 400)" opacity="0.86"></line><line x1="246.5" y1="400" x2="553.5" y2="400" transform="rotate(372, 400, 400)" opacity="0.71"></line><line x1="172" y1="400" x2="628" y2="400" transform="rotate(374, 400, 400)" opacity="0.79"></line><line x1="75.5" y1="400" x2="724.5" y2="400" transform="rotate(376, 400, 400)" opacity="0.26"></line><line x1="43" y1="400" x2="757" y2="400" transform="rotate(378, 400, 400)" opacity="0.93"></line><line x1="454.5" y1="400" x2="345.5" y2="400" transform="rotate(380, 400, 400)" opacity="0.07"></line><line x1="76" y1="400" x2="724" y2="400" transform="rotate(382, 400, 400)" opacity="0.15"></line></g></svg>