<svg width="545.5625366210937px" height="153.2px" xmlns="http://www.w3.org/2000/svg" viewBox="-22.781268310546864 -1.5999999999999943 545.5625366210937 153.2" style="background: rgba(0, 0, 0, 0);" preserveAspectRatio="xMidYMid"><defs><filter id="editing-neon" x="-100%" y="-100%" width="300%" height="300%"><feFlood flood-color="#d9f5a0" result="flood"></feFlood><feComposite operator="in" in="flood" in2="SourceAlpha" result="color"></feComposite><feFlood flood-color="#d9f5a0" result="flood2"></feFlood><feComposite operator="in" in="flood2" in2="SourceAlpha" result="color2"></feComposite><feMorphology operator="dilate" radius="2" in="color" result="dilate"></feMorphology><feGaussianBlur stdDeviation="6" in="color" result="blur1"></feGaussianBlur><feGaussianBlur stdDeviation="2.5" in="color" result="blur2"></feGaussianBlur><feGaussianBlur stdDeviation="1" in="SourceAlpha" result="blur3"></feGaussianBlur><feGaussianBlur stdDeviation="6" in="dilate" result="blur4"></feGaussianBlur><feConvolveMatrix in="color2" result="conv" order="3,3" divisor="1" kernelMatrix="1 1 1  1 1 1  1 1 1"></feConvolveMatrix><feMerge><feMergeNode in="blur1"></feMergeNode><feMergeNode in="blur2"></feMergeNode><feMergeNode in="blur4"></feMergeNode><feMergeNode in="blur3"></feMergeNode><feMergeNode in="blur3"></feMergeNode><feMergeNode in="blur3"></feMergeNode><feMergeNode in="blur3"></feMergeNode><feMergeNode in="conv"></feMergeNode><feMergeNode in="SourceGraphic"></feMergeNode></feMerge></filter></defs><g filter="url(#editing-neon)"><g transform="translate(56.12498140335083, 104.29000091552734)"><path d="M68.43-49.74L68.43 0L58.58 0L58.58-32.11L41.24-1.62L41.24-1.62Q40.61-0.45 39.46 0.15L39.46 0.15L39.46 0.15Q38.31 0.75 37.00 0.75L37.00 0.75L37.00 0.75Q35.72 0.75 34.61 0.15L34.61 0.15L34.61 0.15Q33.50-0.45 32.86-1.62L32.86-1.62L15.45-32.11L15.45 0L5.68 0L5.68-49.74L5.68-49.74Q5.68-51.43 6.67-52.75L6.67-52.75L6.67-52.75Q7.67-54.07 9.29-54.52L9.29-54.52L9.29-54.52Q10.08-54.70 10.87-54.65L10.87-54.65L10.87-54.65Q11.66-54.59 12.39-54.31L12.39-54.31L12.39-54.31Q13.12-54.03 13.72-53.52L13.72-53.52L13.72-53.52Q14.32-53.01 14.74-52.30L14.74-52.30L37.00-13.61L59.25-52.30L59.25-52.30Q60.12-53.73 61.64-54.33L61.64-54.33L61.64-54.33Q63.16-54.93 64.82-54.52L64.82-54.52L64.82-54.52Q66.40-54.07 67.41-52.75L67.41-52.75L67.41-52.75Q68.43-51.43 68.43-49.74L68.43-49.74ZM120.46-27.18L120.46-13.46L120.46-13.46Q120.46-11.43 119.75-9.08L119.75-9.08L119.75-9.08Q119.03-6.73 117.44-4.72L117.44-4.72L117.44-4.72Q115.84-2.71 113.26-1.35L113.26-1.35L113.26-1.35Q110.69 0 107.00 0L107.00 0L89.37 0L89.37 0Q87.34 0 84.99-0.71L84.99-0.71L84.99-0.71Q82.64-1.43 80.63-3.03L80.63-3.03L80.63-3.03Q78.62-4.62 77.26-7.20L77.26-7.20L77.26-7.20Q75.91-9.78 75.91-13.46L75.91-13.46L75.91-13.46Q75.91-15.49 76.62-17.86L76.62-17.86L76.62-17.86Q77.34-20.23 78.94-22.24L78.94-22.24L78.94-22.24Q80.53-24.25 83.11-25.60L83.11-25.60L83.11-25.60Q85.69-26.96 89.37-26.96L89.37-26.96L107.00-26.96L107.00-17.63L89.37-17.63L89.37-17.63Q87.38-17.63 86.29-16.41L86.29-16.41L86.29-16.41Q85.20-15.19 85.20-13.38L85.20-13.38L85.20-13.38Q85.20-11.47 86.46-10.40L86.46-10.40L86.46-10.40Q87.72-9.32 89.44-9.32L89.44-9.32L107.00-9.32L107.00-9.32Q109.00-9.32 110.09-10.53L110.09-10.53L110.09-10.53Q111.18-11.73 111.18-13.54L111.18-13.54L111.18-27.18L111.18-27.18Q111.18-29.10 109.99-30.23L109.99-30.23L109.99-30.23Q108.81-31.36 107.00-31.36L107.00-31.36L85.53-31.36L85.53-40.64L107.00-40.64L107.00-40.64Q109.03-40.64 111.38-39.93L111.38-39.93L111.38-39.93Q113.73-39.21 115.74-37.62L115.74-37.62L115.74-37.62Q117.76-36.02 119.11-33.44L119.11-33.44L119.11-33.44Q120.46-30.87 120.46-27.18L120.46-27.18ZM165.62-40.64L165.62-30.87L148.55-30.87L148.55 0L138.66 0L138.66-30.87L125.95-30.87L125.95-40.64L138.66-40.64L138.66-53.92L148.55-53.92L148.55-40.64L165.62-40.64ZM211.26-9.78L211.26 0L184.75 0L184.75 0Q182.72 0 180.32-0.71L180.32-0.71L180.32-0.71Q177.91-1.43 175.86-3.06L175.86-3.06L175.86-3.06Q173.81-4.70 172.44-7.31L172.44-7.31L172.44-7.31Q171.07-9.93 171.07-13.72L171.07-13.72L171.07-26.96L171.07-26.96Q171.07-28.35 171.39-29.89L171.39-29.89L171.39-29.89Q171.71-31.43 172.39-32.95L172.39-32.95L172.39-32.95Q173.06-34.48 174.13-35.87L174.13-35.87L174.13-35.87Q175.21-37.26 176.73-38.31L176.73-38.31L176.73-38.31Q178.25-39.36 180.24-40.00L180.24-40.00L180.24-40.00Q182.24-40.64 184.75-40.64L184.75-40.64L211.26-40.64L211.26-30.87L184.75-30.87L184.75-30.87Q182.84-30.87 181.84-29.89L181.84-29.89L181.84-29.89Q180.84-28.91 180.84-26.88L180.84-26.88L180.84-13.72L180.84-13.72Q180.84-11.81 181.86-10.79L181.86-10.79L181.86-10.79Q182.88-9.78 184.83-9.78L184.83-9.78L211.26-9.78ZM264.54-26.96L264.54 0L254.76 0L254.76-26.96L254.76-26.96Q254.76-28.88 253.78-29.87L253.78-29.87L253.78-29.87Q252.81-30.87 250.85-30.87L250.85-30.87L233.22-30.87L233.22-40.64L250.85-40.64L250.85-40.64Q252.24-40.64 253.78-40.32L253.78-40.32L253.78-40.32Q255.33-40.00 256.85-39.33L256.85-39.33L256.85-39.33Q258.37-38.65 259.76-37.58L259.76-37.58L259.76-37.58Q261.15-36.51 262.21-34.98L262.21-34.98L262.21-34.98Q263.26-33.46 263.90-31.47L263.90-31.47L263.90-31.47Q264.54-29.48 264.54-26.96L264.54-26.96ZM229.27-57.83L229.27 0L219.50 0L219.50-57.83L229.27-57.83ZM317.21-27.18L317.21-27.18L317.21-27.18Q317.21-25.15 316.50-22.80L316.50-22.80L316.50-22.80Q315.78-20.45 314.18-18.44L314.18-18.44L314.18-18.44Q312.59-16.43 310.01-15.08L310.01-15.08L310.01-15.08Q307.44-13.72 303.75-13.72L303.75-13.72L286.12-13.72L286.12-23.01L303.75-23.01L303.75-23.01Q305.74-23.01 306.83-24.23L306.83-24.23L306.83-24.23Q307.92-25.45 307.92-27.26L307.92-27.26L307.92-27.26Q307.92-29.18 306.70-30.27L306.70-30.27L306.70-30.27Q305.48-31.36 303.75-31.36L303.75-31.36L286.12-31.36L286.12-31.36Q284.13-31.36 283.04-30.13L283.04-30.13L283.04-30.13Q281.94-28.91 281.94-27.11L281.94-27.11L281.94-13.46L281.94-13.46Q281.94-11.50 283.17-10.41L283.17-10.41L283.17-10.41Q284.39-9.32 286.19-9.32L286.19-9.32L303.75-9.32L303.75 0L286.12 0L286.12 0Q284.09 0 281.74-0.71L281.74-0.71L281.74-0.71Q279.39-1.43 277.38-3.03L277.38-3.03L277.38-3.03Q275.37-4.62 274.01-7.20L274.01-7.20L274.01-7.20Q272.66-9.78 272.66-13.46L272.66-13.46L272.66-27.18L272.66-27.18Q272.66-29.21 273.37-31.56L273.37-31.56L273.37-31.56Q274.09-33.91 275.68-35.92L275.68-35.92L275.68-35.92Q277.28-37.94 279.86-39.29L279.86-39.29L279.86-39.29Q282.43-40.64 286.12-40.64L286.12-40.64L303.75-40.64L303.75-40.64Q305.78-40.64 308.13-39.93L308.13-39.93L308.13-39.93Q310.48-39.21 312.49-37.62L312.49-37.62L312.49-37.62Q314.50-36.02 315.86-33.44L315.86-33.44L315.86-33.44Q317.21-30.87 317.21-27.18ZM360.07-26.96L360.07 0L350.30 0L350.30-26.96L350.30-26.96Q350.30-28.88 349.28-29.87L349.28-29.87L349.28-29.87Q348.27-30.87 346.27-30.87L346.27-30.87L333.57-30.87L333.57 0L323.79 0L323.79-35.79L323.79-35.79Q323.79-36.81 324.17-37.69L324.17-37.69L324.17-37.69Q324.54-38.58 325.22-39.23L325.22-39.23L325.22-39.23Q325.90-39.89 326.80-40.27L326.80-40.27L326.80-40.27Q327.70-40.64 328.72-40.64L328.72-40.64L346.35-40.64L346.35-40.64Q348.38-40.64 350.71-39.93L350.71-39.93L350.71-39.93Q353.04-39.21 355.15-37.64L355.15-37.64L355.15-40.64L368.38-40.64L368.38-40.64Q369.77-40.64 371.31-40.32L371.31-40.32L371.31-40.32Q372.86-40.00 374.38-39.33L374.38-39.33L374.38-39.33Q375.90-38.65 377.29-37.58L377.29-37.58L377.29-37.58Q378.68-36.51 379.74-34.98L379.74-34.98L379.74-34.98Q380.79-33.46 381.43-31.47L381.43-31.47L381.43-31.47Q382.07-29.48 382.07-26.96L382.07-26.96L382.07 0L372.29 0L372.29-26.96L372.29-26.96Q372.29-28.88 371.33-29.87L371.33-29.87L371.33-29.87Q370.37-30.87 368.38-30.87L368.38-30.87L359.58-30.87L359.58-30.87Q360.07-29.06 360.07-26.96L360.07-26.96Z" fill="none" stroke="#ffffff" stroke-width="2.6"></path></g></g><style>text {
  font-size: 64px;
  font-family: Arial Black;
  dominant-baseline: central;
  text-anchor: middle;
}</style></svg>