<svg width="389.2816162109375px" height="166.4px" xmlns="http://www.w3.org/2000/svg" viewBox="55.35919189453125 -8.200000000000003 389.2816162109375 166.4" style="background: rgba(0, 0, 0, 0);" preserveAspectRatio="xMidYMid"><defs><filter id="editing-neon" x="-100%" y="-100%" width="300%" height="300%"><feFlood flood-color="#d9f5a0" result="flood"></feFlood><feComposite operator="in" in="flood" in2="SourceAlpha" result="color"></feComposite><feFlood flood-color="#d9f5a0" result="flood2"></feFlood><feComposite operator="in" in="flood2" in2="SourceAlpha" result="color2"></feComposite><feMorphology operator="dilate" radius="2" in="color" result="dilate"></feMorphology><feGaussianBlur stdDeviation="6" in="color" result="blur1"></feGaussianBlur><feGaussianBlur stdDeviation="2.5" in="color" result="blur2"></feGaussianBlur><feGaussianBlur stdDeviation="1" in="SourceAlpha" result="blur3"></feGaussianBlur><feGaussianBlur stdDeviation="6" in="dilate" result="blur4"></feGaussianBlur><feConvolveMatrix in="color2" result="conv" order="3,3" divisor="1" kernelMatrix="1 1 1  1 1 1  1 1 1"></feConvolveMatrix><feMerge><feMergeNode in="blur1"></feMergeNode><feMergeNode in="blur2"></feMergeNode><feMergeNode in="blur4"></feMergeNode><feMergeNode in="blur3"></feMergeNode><feMergeNode in="blur3"></feMergeNode><feMergeNode in="blur3"></feMergeNode><feMergeNode in="blur3"></feMergeNode><feMergeNode in="conv"></feMergeNode><feMergeNode in="SourceGraphic"></feMergeNode></feMerge></filter></defs><g filter="url(#editing-neon)"><g transform="translate(113.67004084587097, 108.13000106811523)"><path d="M4.75-34.23L4.75-34.23L4.31-50.86L4.31-50.86Q4.31-54.82 3.43-57.11L3.43-57.11L3.43-57.11Q2.55-59.40 2.55-59.58L2.55-59.58L2.55-59.58Q2.55-61.51 8.49-62.57L8.49-62.57L8.49-62.57Q14.43-63.62 17.56-63.62L17.56-63.62L17.56-63.62Q20.68-63.62 20.94-62.13L20.94-62.13L20.94-62.13Q26.49-37.40 30.27-27.81L30.27-27.81L30.27-27.81Q30.71-26.75 31.20-26.75L31.20-26.75L31.20-26.75Q31.68-26.75 32.03-27.54L32.03-27.54L32.03-27.54Q37.93-44.18 42.42-60.46L42.42-60.46L42.42-60.46Q42.77-61.51 44.18-62.08L44.18-62.08L44.18-62.08Q45.58-62.66 49.06-63.18L49.06-63.18L49.06-63.18Q52.54-63.71 55.97-63.71L55.97-63.71L55.97-63.71Q59.40-63.71 59.40-62.30L59.40-62.30L59.40-62.30Q59.40-62.22 59.14-60.94L59.14-60.94L59.14-60.94Q58.87-59.66 58.61-57.82L58.61-57.82L58.61-57.82Q58.34-55.97 57.99-53.33L57.99-53.33L57.99-53.33Q57.20-47.26 56.98-39.38L56.98-39.38L56.98-39.38Q56.76-31.50 56.76-23.58L56.76-23.58L56.94-14.34L56.94-14.34Q56.94-8.01 57.77-5.32L57.77-5.32L57.77-5.32Q58.61-2.64 58.61-2.24L58.61-2.24L58.61-2.24Q58.61-1.85 57.99-1.32L57.99-1.32L57.99-1.32Q55.26 0.88 49.72 0.88L49.72 0.88L49.72 0.88Q46.20 0.88 45.76-1.50L45.76-1.50L45.76-1.50Q45.50-2.73 45.50-5.41L45.50-5.41L45.50-5.41Q45.50-8.10 46.02-21.91L46.02-21.91L46.02-21.91Q46.55-35.73 46.55-42.02L46.55-42.02L46.55-42.02Q46.55-48.31 45.85-48.31L45.85-48.31L45.85-48.31Q45.76-48.31 45.76-48.27L45.76-48.27L45.76-48.27Q45.76-48.22 45.50-48.14L45.50-48.14L45.50-48.14Q45.23-48.05 44.13-45.41L44.13-45.41L44.13-45.41Q43.03-42.77 39.78-32.38L39.78-32.38L39.78-32.38Q36.52-22 33.88-12.98L33.88-12.98L33.88-12.98Q31.24-3.96 30.98-3.26L30.98-3.26L30.98-3.26Q30.01-0.88 27.28-0.88L27.28-0.88L27.28-0.88Q25.96-0.88 25.17-1.85L25.17-1.85L25.17-1.85Q22.35-14.87 15.14-39.07L15.14-39.07L12.67-47.08L12.67-47.08Q12.50-47.52 12.32-47.52L12.32-47.52L12.32-47.52Q11.88-47.52 11.70-46.90L11.70-46.90L11.70-46.90Q11.35-41.18 11.35-24.42L11.35-24.42L11.35-24.42Q11.35-7.66 12.58-3.26L12.58-3.26L12.58-3.26Q12.67-3.08 12.67-2.73L12.67-2.73L12.67-2.73Q12.67-0.88 9.77-0.04L9.77-0.04L9.77-0.04Q6.86 0.79 4.53 0.79L4.53 0.79L4.53 0.79Q2.20 0.79 2.20-0.26L2.20-0.26L2.20-0.26Q2.20-0.35 2.64-1.67L2.64-1.67L2.64-1.67Q3.96-6.16 4.36-14.70L4.36-14.70L4.36-14.70Q4.75-23.23 4.75-34.23ZM93.19-26.40L93.19-26.40L93.02-15.14L93.02-15.14Q93.02-3.43 95.57-1.06L95.57-1.06L95.57-1.06Q95.92-0.70 95.92-0.26L95.92-0.26L95.92-0.26Q95.92 1.06 90.24 1.06L90.24 1.06L90.24 1.06Q84.57 1.06 84.22-2.29L84.22-2.29L84.22-2.29Q84.13-3.08 84.13-5.54L84.13-5.54L84.48-19.62L84.48-19.62Q84.48-20.24 83.78-20.24L83.78-20.24L83.78-20.24Q79.55-20.24 75.86-17.86L75.86-17.86L75.86-17.86Q72.16-15.49 72.16-11.79L72.16-11.79L72.16-11.79Q72.16-9.86 73.22-8.54L73.22-8.54L73.22-8.54Q74.27-7.22 75.81-7.22L75.81-7.22L75.81-7.22Q77.35-7.22 78.36-7.83L78.36-7.83L78.36-7.83Q79.38-8.45 79.55-8.54L79.55-8.54L79.55-8.54Q81.05-8.36 81.05-5.41L81.05-5.41L81.05-5.41Q81.05-2.46 78.32-0.66L78.32-0.66L78.32-0.66Q75.59 1.14 72.60 1.14L72.60 1.14L72.60 1.14Q69.61 1.14 67.45 0.09L67.45 0.09L67.45 0.09Q65.30-0.97 64.33-2.29L64.33-2.29L64.33-2.29Q63.36-3.61 62.74-5.28L62.74-5.28L62.74-5.28Q62.13-7.30 62.13-8.80L62.13-8.80L62.13-8.80Q62.13-14.96 66-18.66L66-18.66L66-18.66Q69.87-22.35 75.94-23.94L75.94-23.94L75.94-23.94Q83.95-25.52 84.30-26.84L84.30-26.84L84.30-26.84Q84.57-27.81 84.57-30.10L84.57-30.10L84.57-30.10Q84.57-34.76 79.82-34.76L79.82-34.76L79.82-34.76Q77.79-34.76 76.21-33.48L76.21-33.48L76.21-33.48Q74.62-32.21 74.62-30.27L74.62-30.27L75.15-28.16L75.15-28.16Q74.98-26.66 71.98-26.40L71.98-26.40L71.02-26.31L71.02-26.31Q68.38-26.31 66.84-27.63L66.84-27.63L66.84-27.63Q65.30-28.95 65.30-31.15L65.30-31.15L65.30-31.15Q65.30-32.56 66.22-34.28L66.22-34.28L66.22-34.28Q67.14-35.99 68.55-37.05L68.55-37.05L68.55-37.05Q69.96-38.10 72.91-38.94L72.91-38.94L72.91-38.94Q75.86-39.78 78.58-39.78L78.58-39.78L78.58-39.78Q81.31-39.78 82.81-39.60L82.81-39.60L82.81-39.60Q84.30-39.42 86.90-38.76L86.90-38.76L86.90-38.76Q89.50-38.10 91.21-36.26L91.21-36.26L91.21-36.26Q92.93-34.41 93.06-32.34L93.06-32.34L93.06-32.34Q93.19-30.27 93.19-26.40ZM97.24-34.32L97.24-34.32L97.50-37.84L97.50-37.84Q97.59-38.63 98.74-38.63L98.74-38.63L101.82-38.63L101.46-45.67L101.46-46.02L101.46-46.02Q101.46-48.05 104.54-49.90L104.54-49.90L104.54-49.90Q107.62-51.74 110.18-51.74L110.18-51.74L110.18-51.74Q110.97-51.74 110.97-51.04L110.97-51.04L110.97-50.95L110.97-50.95Q110.62-48.58 110.26-38.72L110.26-38.72L110.26-38.72Q114.14-38.72 115.19-38.90L115.19-38.90L115.19-38.90Q116.25-39.07 116.34-39.07L116.34-39.07L116.34-39.07Q116.95-39.07 116.95-38.02L116.95-38.02L116.95-38.02Q116.95-36.96 115.98-35.33L115.98-35.33L115.98-35.33Q115.02-33.70 113.87-33.62L113.87-33.62L110.18-33.62L110.18-33.62Q110.09-30.62 110.09-23.54L110.09-23.54L110.09-23.54Q110.09-16.46 110.22-11.88L110.22-11.88L110.22-11.88Q110.35-7.30 110.53-4.97L110.53-4.97L110.53-4.97Q110.70-2.64 110.92-1.23L110.92-1.23L110.92-1.23Q111.14 0.18 111.28 0.79L111.28 0.79L111.28 0.79Q111.41 1.41 111.41 1.58L111.41 1.58L111.41 1.58Q111.41 2.46 110.26 2.55L110.26 2.55L110.26 2.55Q106.83 2.55 103.44 1.58L103.44 1.58L103.44 1.58Q100.06 0.62 100.06-1.76L100.06-1.76L100.06-1.76Q101.90-16.54 101.90-33.53L101.90-33.53L101.90-33.53Q99.53-33.53 98.30-33.35L98.30-33.35L98.21-33.35L98.21-33.35Q97.42-33.35 97.24-34.32ZM147.05-10.12L147.05-10.12L147.05-10.12Q147.05-5.10 143.04-1.80L143.04-1.80L143.04-1.80Q139.04 1.50 133.50 1.50L133.50 1.50L133.50 1.50Q125.40 1.50 121.62-3.39L121.62-3.39L121.62-3.39Q117.83-8.27 117.83-16.63L117.83-16.63L117.83-16.63Q117.83-25.52 121.79-32.38L121.79-32.38L121.79-32.38Q123.73-35.90 127.34-37.93L127.34-37.93L127.34-37.93Q130.94-39.95 135.78-39.95L135.78-39.95L135.78-39.95Q143.09-39.95 146.08-35.02L146.08-35.02L146.08-35.02Q147.31-33 147.31-30.27L147.31-30.27L147.31-30.27Q147.31-26.05 143.79-23.94L143.79-23.94L143.79-23.94Q142.38-23.14 141.20-23.14L141.20-23.14L141.20-23.14Q140.01-23.14 139.26-23.28L139.26-23.28L139.26-23.28Q138.51-23.41 137.28-24.46L137.28-24.46L137.28-24.46Q136.05-25.52 136.05-27.37L136.05-27.37L136.05-27.37Q136.14-28.34 137.54-28.95L137.54-28.95L137.54-28.95Q138.86-29.74 138.86-31.77L138.86-31.77L138.86-31.77Q138.86-35.20 134.64-35.20L134.64-35.20L134.64-35.20Q133.58-35.20 132.13-34.28L132.13-34.28L132.13-34.28Q130.68-33.35 129.71-31.90L129.71-31.90L129.71-31.90Q128.74-30.45 127.91-27.32L127.91-27.32L127.91-27.32Q127.07-24.20 127.07-21.34L127.07-21.34L127.07-21.34Q127.07-18.48 127.29-17.03L127.29-17.03L127.29-17.03Q127.51-15.58 128.26-13.07L128.26-13.07L128.26-13.07Q129.01-10.56 131.08-8.98L131.08-8.98L131.08-8.98Q133.14-7.39 136.22-7.39L136.22-7.39L136.22-7.39Q139.92-7.39 142.74-10.47L142.74-10.47L142.74-10.47Q143.88-11.70 144.58-13.46L144.58-13.46L144.58-13.46Q144.94-14.17 145.46-14.17L145.46-14.17L145.46-14.17Q146.26-14.17 146.65-12.72L146.65-12.72L146.65-12.72Q147.05-11.26 147.05-10.12ZM162.18-47.26L162.18-47.26L162.10-38.72L162.10-38.72Q162.10-38.19 162.45-38.19L162.45-38.19L162.45-38.19Q162.80-38.19 163.15-38.46L163.15-38.46L163.15-38.46Q165.35-39.95 170.10-39.95L170.10-39.95L170.10-39.95Q178.11-39.95 181.19-34.50L181.19-34.50L181.19-34.50Q182.34-32.47 182.34-29.13L182.34-29.13L182.34-29.13Q182.34-25.78 181.94-19.89L181.94-19.89L181.94-19.89Q181.54-13.99 181.54-11.53L181.54-11.53L181.54-11.53Q181.54-2.90 184.01-0.09L184.01-0.09L184.01-0.09Q184.45 0.35 184.45 0.79L184.45 0.79L184.45 0.79Q184.45 1.67 180.66 1.67L180.66 1.67L180.66 1.67Q170.46 1.67 170.46-7.83L170.46-7.83L170.46-7.83Q170.46-11.53 172.22-18.22L172.22-18.22L172.22-18.22Q173.98-24.90 173.98-28.07L173.98-28.07L173.98-28.07Q173.98-31.24 172.48-32.96L172.48-32.96L172.48-32.96Q170.98-34.67 168.34-34.67L168.34-34.67L168.34-34.67Q165.70-34.67 164.16-33.53L164.16-33.53L164.16-33.53Q162.62-32.38 162.27-31.15L162.27-31.15L162.01-30.01L162.01-30.01Q161.92-28.34 161.92-19.36L161.92-19.36L161.92-19.36Q161.92-10.38 162.36-7.70L162.36-7.70L162.36-7.70Q162.80-5.02 162.80-4.66L162.80-4.66L162.80-4.66Q162.80-2.11 159.37-0.13L159.37-0.13L159.37-0.13Q155.94 1.85 152.59 1.85L152.59 1.85L152.59 1.85Q151.36 1.85 151.36 0.44L151.36 0.44L151.54-1.23L151.54-1.23Q153.47-16.02 153.47-33.26L153.47-33.26L153.47-33.26Q153.47-39.95 152.94-46.82L152.94-46.82L152.86-48.75L152.86-48.75Q152.68-51.22 151.84-52.98L151.84-52.98L151.84-52.98Q151.01-54.74 150.30-55.26L150.30-55.26L149.51-55.70L149.51-55.70Q148.90-56.06 148.90-56.50L148.90-56.50L148.90-56.50Q148.90-57.73 153.03-59.53L153.03-59.53L153.03-59.53Q157.17-61.34 159.41-61.34L159.41-61.34L159.41-61.34Q161.66-61.34 161.83-60.37L161.83-60.37L161.83-60.37Q162.18-55.88 162.18-47.26ZM195.45-22.35L195.45-22.35L195.54-20.15L195.54-20.15Q195.54-19.62 196.24-19.62L196.24-19.62L196.24-19.62Q199.06-19.89 201.17-21.08L201.17-21.08L201.17-21.08Q203.28-22.26 204.34-23.76L204.34-23.76L204.34-23.76Q206.45-27.02 206.62-29.39L206.62-29.39L206.71-30.45L206.71-30.45Q206.71-35.20 202.93-35.20L202.93-35.20L202.93-35.20Q200.11-35.20 198.35-32.74L198.35-32.74L198.35-32.74Q195.45-28.86 195.45-22.35ZM214.63-10.65L214.63-10.65L214.63-10.65Q214.63-7.30 213.27-4.80L213.27-4.80L213.27-4.80Q211.90-2.29 210.19-1.10L210.19-1.10L210.19-1.10Q208.47 0.09 206.18 0.79L206.18 0.79L206.18 0.79Q203.28 1.67 200.64 1.67L200.64 1.67L200.64 1.67Q193.25 1.67 189.73-3.87L189.73-3.87L189.73-3.87Q186.21-9.42 186.21-18.00L186.21-18.00L186.21-18.00Q186.21-26.58 190.56-33.26L190.56-33.26L190.56-33.26Q194.92-39.95 203.63-39.95L203.63-39.95L203.63-39.95Q211.55-39.95 214.37-34.41L214.37-34.41L214.37-34.41Q215.51-32.30 215.51-30.40L215.51-30.40L215.51-30.40Q215.51-28.51 215.34-27.41L215.34-27.41L215.34-27.41Q215.16-26.31 214.10-24.11L214.10-24.11L214.10-24.11Q213.05-21.91 211.29-20.15L211.29-20.15L211.29-20.15Q209.53-18.39 205.74-16.81L205.74-16.81L205.74-16.81Q201.96-15.22 196.86-14.70L196.86-14.70L196.86-14.70Q196.15-14.70 196.15-14.08L196.15-14.08L196.15-14.08Q196.15-13.29 196.72-11.75L196.72-11.75L196.72-11.75Q197.30-10.21 198-9.15L198-9.15L198-9.15Q199.94-6.69 203.72-6.69L203.72-6.69L203.72-6.69Q207.50-6.69 210.14-9.15L210.14-9.15L210.14-9.15Q211.55-10.47 212.43-12.41L212.43-12.41L212.43-12.41Q212.78-13.11 213.36-13.11L213.36-13.11L213.36-13.11Q213.93-13.11 214.28-12.14L214.28-12.14L214.28-12.14Q214.63-11.18 214.63-10.65ZM239.36 0.53L239.36 0.53L239.36 0.53Q240.59-5.63 240.59-16.76L240.59-16.76L240.59-16.76Q240.59-27.90 240.50-29.92L240.50-29.92L240.50-29.92Q240.42-31.94 239.27-33.18L239.27-33.18L239.27-33.18Q238.13-34.41 237.29-34.58L237.29-34.58L237.29-34.58Q236.46-34.76 234.96-34.76L234.96-34.76L234.96-34.76Q233.46-34.76 232.06-33.40L232.06-33.40L232.06-33.40Q230.65-32.03 230.38-30.62L230.38-30.62L230.03-29.22L230.03-29.22Q229.77-26.58 229.77-17.51L229.77-17.51L229.77-17.51Q229.77-8.45 230.16-6.12L230.16-6.12L230.16-6.12Q230.56-3.78 230.56-2.99L230.56-2.99L230.56-2.99Q230.56-2.20 229.86-1.41L229.86-1.41L229.86-1.41Q226.86 1.76 221.41 1.76L221.41 1.76L221.41 1.76Q219.47 1.76 219.47 0.62L219.47 0.62L219.47 0.62Q221.23-9.94 221.23-26.31L221.23-26.31L221.23-26.31Q221.23-32.38 220.97-34.50L220.97-34.50L220.62-37.31L220.62-37.31Q220.53-38.28 220.26-39.42L220.26-39.42L220.26-39.42Q220.26-40.48 222.99-40.48L222.99-40.48L222.99-40.48Q227.04-40.48 228.36-37.49L228.36-37.49L228.36-37.49Q228.45-37.14 228.71-37.14L228.71-37.14L228.71-37.14Q228.98-37.14 229.94-37.84L229.94-37.84L229.94-37.84Q232.85-40.13 237.78-40.13L237.78-40.13L237.78-40.13Q240.59-40.13 243.32-39.07L243.32-39.07L243.32-39.07Q246.05-38.02 247.10-36.26L247.10-36.26L247.10-36.26Q247.19-36.08 247.37-36.08L247.37-36.08L247.37-36.08Q247.54-36.08 247.90-36.43L247.90-36.43L247.90-36.43Q251.59-40.13 257.49-40.13L257.49-40.13L257.49-40.13Q265.32-40.13 268.22-34.50L268.22-34.50L268.22-34.50Q269.28-32.30 269.28-28.95L269.28-28.95L269.28-28.95Q269.28-25.61 268.75-19.45L268.75-19.45L268.75-19.45Q268.22-13.29 268.22-10.03L268.22-10.03L268.22-10.03Q268.22-6.78 268.88-4.14L268.88-4.14L268.88-4.14Q269.54-1.50 270.20-0.35L270.20-0.35L270.20-0.35Q270.86 0.79 270.86 0.97L270.86 0.97L270.86 0.97Q270.86 2.11 268.40 2.11L268.40 2.11L268.40 2.11Q262.33 2.11 259.95-0.35L259.95-0.35L259.95-0.35Q257.58-2.82 257.58-6.82L257.58-6.82L257.58-6.82Q257.58-10.82 259.20-17.64L259.20-17.64L259.20-17.64Q260.83-24.46 260.83-27.90L260.83-27.90L260.83-27.90Q260.83-34.85 255.20-34.85L255.20-34.85L255.20-34.85Q252.82-34.85 251.42-33.44L251.42-33.44L251.42-33.44Q250.01-32.03 249.74-30.62L249.74-30.62L249.57-29.22L249.57-29.22Q249.22-25.17 249.22-19.45L249.22-19.45L249.22-19.45Q249.22-13.73 249.39-10.52L249.39-10.52L249.39-10.52Q249.57-7.30 249.74-5.50L249.74-5.50L249.74-5.50Q249.92-3.70 249.92-3.34L249.92-3.34L249.92-3.34Q249.92-0.88 246.84 0.44L246.84 0.44L246.84 0.44Q243.76 1.76 240.86 1.76L240.86 1.76L240.86 1.76Q239.36 1.76 239.36 0.53Z" fill="none" stroke="#ffffff" stroke-width="2.1"></path></g></g><style>text {
  font-size: 64px;
  font-family: Arial Black;
  dominant-baseline: central;
  text-anchor: middle;
}</style></svg>